<?xml version="1.0" standalone="no"?>
<!DOCTYPE svg PUBLIC "-//W3C//DTD SVG 1.1//EN" "http://www.w3.org/Graphics/SVG/1.1/DTD/svg11.dtd" >
<svg xmlns="http://www.w3.org/2000/svg" xmlns:xlink="http://www.w3.org/1999/xlink" version="1.1">
<metadata>
Created by FontForge 20170924 at Sun Aug 15 01:18:11 1999
 By www-data
Visit www.livingend.com for more fonts.  
</metadata>
<defs>
<font id="HorseshoesAndLemonade" horiz-adv-x="546" >
  <font-face 
    font-family="Horseshoes And Lemonade"
    font-weight="400"
    font-stretch="normal"
    units-per-em="1000"
    panose-1="0 0 4 0 0 0 0 0 0 0"
    ascent="800"
    descent="-200"
    x-height="741"
    cap-height="756"
    bbox="0 -236 760 800"
    underline-thickness="20"
    underline-position="-143"
    unicode-range="U+0020-007E"
  />
<missing-glyph horiz-adv-x="500" 
d="M63 0v800h375v-800h-375zM125 63h250v675h-250v-675z" />
    <glyph glyph-name=".notdef" horiz-adv-x="500" 
d="M63 0v800h375v-800h-375zM125 63h250v675h-250v-675z" />
    <glyph glyph-name=".null" horiz-adv-x="0" 
 />
    <glyph glyph-name="nonmarkingreturn" 
 />
    <glyph glyph-name="space" unicode=" " 
 />
    <glyph glyph-name="exclam" unicode="!" horiz-adv-x="263" 
d="M158 88q0 204 56 455q8 34 13 90q7 63 3 88q-10 68 -70 68q-71 0 -71 -75l16 -177q14 -155 14 -309q0 -97 -6 -160zM70 -43q0 28 20.5 48.5t48.5 20.5q29 0 48.5 -20t19.5 -49q0 -28 -20 -48.5t-48 -20.5q-27 0 -48 21t-21 48z" />
    <glyph glyph-name="quotedbl" unicode="&#x22;" horiz-adv-x="205" 
d="M29 757l8 -153l52 14l-3 154zM120 769l10 -154l46 -13l6 162z" />
    <glyph glyph-name="numbersign" unicode="#" horiz-adv-x="730" 
d="M417 399h-134l-16 -129h134zM319 693l-26 -223h131l26 223l99 -20l-36 -203h152l21 -71l-179 1l-25 -129h167l-19 -82h-160l-35 -212l-70 20l26 192h-131l-25 -192l-100 -20l36 212h-97l-21 82h127l19 130l-110 -2l-20 71h145l36 203z" />
    <glyph glyph-name="dollar" unicode="$" horiz-adv-x="391" 
d="M181 433l3 281q-37 0 -65 -42q-19 -28 -19 -69q0 -40 12 -68q4 -9 33 -58q19 -32 36 -44zM206 26q94 31 94 119q0 38 -20 70q-31 50 -64 73zM157 -126l7 116q-57 4 -98 38q-45 36 -45 91q0 30 16.5 51.5t45.5 21.5q26 0 41.5 -17t15.5 -43q0 -57 -60 -57h-2
q22 -33 63 -48q9 -4 23 -5l10 290q-39 24 -104 125q-34 53 -34 121q0 155 151 191l4 51h42l-4 -49q49 -2 87 -36.5t38 -82.5q0 -26 -15.5 -44t-41.5 -18q-23 0 -39.5 16t-16.5 39q0 47 53 58q-28 36 -65 36h-3l-3 -320q47 -28 59 -37q34 -24 50 -48q37 -56 37 -123
q0 -163 -163 -200l-7 -117h-42z" />
    <glyph glyph-name="percent" unicode="%" horiz-adv-x="802" 
d="M604 -74q-66 0 -110.5 47t-44.5 113t44.5 113t110.5 47t111 -47t45 -113t-45 -113t-111 -47zM286 -122l-44 21l230 882l86 -20zM615 183q-48 0 -75 -30t-27 -78t27 -78t75 -30q47 0 74.5 30t27.5 78t-27.5 78t-74.5 30zM604 -74q-66 0 -110.5 47t-44.5 113t44.5 113
t110.5 47t111 -47t45 -113t-45 -113t-111 -47zM615 183q-48 0 -75 -30t-27 -78t27 -78t75 -30q47 0 74.5 30t27.5 78t-27.5 78t-74.5 30zM176 444q-66 0 -106 42t-40 108t40 107.5t106 41.5q65 0 105 -42t40 -107q0 -66 -39.5 -108t-105.5 -42zM186 680q-92 0 -92 -97
q0 -98 92 -98t92 98q0 97 -92 97z" />
    <glyph glyph-name="ampersand" unicode="&#x26;" horiz-adv-x="549" 
d="M248 523q55 43 73 65q37 45 37 84q0 21 -24 58q-14 22 -57 22q-52 0 -52 -81q0 -63 23 -148zM337 74q-99 169 -158 339q-18 -13 -28 -36q-20 -46 -20 -62q0 -91 34 -201q9 -30 25 -53q36 -53 80 -53q5 0 21 9.5t19 14.5q8 13 27 42zM365 40q-11 -20 -41 -47.5t-50 -34.5
q-29 -10 -61 -10q-67 0 -138 83q-53 62 -53 159q0 100 35 156q46 74 102 112q-35 96 -35 162q0 71 39 118q42 51 111 51q55 0 92.5 -34t37.5 -89q0 -97 -144 -187q41 -118 72 -198q18 -46 53 -109q6 15 15 64l11 61q8 34 8 69q0 7 1 20t1 20q-4 30 -61 31v33l177 -30v-33
q-8 -1 -23.5 3.5t-22.5 4.5q-12 0 -22 -33q-1 -4 -18 -69q-12 -79 -41 -199q33 -56 64 -56q37 0 37 48q0 36 -22 60h32q21 -20 21 -60q0 -31 -13 -63q-15 -37 -39 -49q-12 -6 -40 -6q-13 0 -60 21q-9 4 -14 13l-1 2q-8 14 -10 16z" />
    <glyph glyph-name="quotesingle" unicode="'" horiz-adv-x="146" 
d="M40 769l10 -144l46 -13l6 152z" />
    <glyph glyph-name="parenleft" unicode="(" horiz-adv-x="308" 
d="M276 -139q-92 72 -168 219q-57 109 -57 225q0 69 13 145q15 87 41 138q64 127 157 211l35 -30q-82 -87 -113 -174q-47 -132 -47 -287q0 -117 41 -225q42 -111 122 -192z" />
    <glyph glyph-name="parenright" unicode=")" horiz-adv-x="308" 
d="M64 -139q92 72 168 219q57 109 57 225q0 69 -13 145q-15 87 -41 138q-64 127 -157 211l-35 -30q82 -87 113 -174q47 -132 47 -287q0 -117 -41 -225q-42 -111 -122 -192z" />
    <glyph glyph-name="asterisk" unicode="*" horiz-adv-x="291" 
d="M94 642l-68 -3l-3 -18l84 -7l-33 -84l24 -17l41 83l77 -71l24 17l-78 75l113 12l-1 24l-113 -3l33 81l-27 7l-40 -77l-61 57l-15 -16z" />
    <glyph glyph-name="plus" unicode="+" horiz-adv-x="494" 
d="M42 270l173 -5l12 -165l55 2l3 166l168 3l3 74l-172 -9l4 198l-95 -6l15 -193l-166 -7v-58z" />
    <glyph glyph-name="comma" unicode="," horiz-adv-x="196" 
d="M60 113q7 -60 7 -90q0 -53 -25 -111l50 -54q39 51 51 109q3 14 11 129z" />
    <glyph glyph-name="hyphen" unicode="-" horiz-adv-x="625" 
d="M579 430v-92l-495 10v92z" />
    <glyph glyph-name="hyphen" unicode="&#x2010;" horiz-adv-x="625" 
d="M579 430v-92l-495 10v92z" />
    <glyph glyph-name="period" unicode="." horiz-adv-x="196" 
d="M167 38q0 -29 -20 -49.5t-49 -20.5t-49.5 20.5t-20.5 49.5t20.5 49t49.5 20q30 0 49.5 -19.5t19.5 -49.5zM108 55q-31 0 -31 -31q0 -32 31 -32t31 32q0 31 -31 31z" />
    <glyph glyph-name="slash" unicode="/" horiz-adv-x="328" 
d="M312 769l-232 -882l-63 20l230 882z" />
    <glyph glyph-name="zero" unicode="0" 
d="M431 379q0 70 -19 129q-29 89 -56 120q-36 41 -85 41q-48 0 -85 -41q-27 -30 -56 -119q-19 -58 -19 -130q0 -83 29 -170q33 -99 96 -130q22 -11 45 -11q95 0 141 141q9 28 9 170zM339 367q0 -28 1 -88l1 -74q-1 -32 -5 -49q-13 -52 -45 -52t-45 52q-23 91 -23 211
q0 94 4 128q12 100 54 100t54 -100q4 -34 4 -128zM39 -18l6 769l416 20l49 -809z" />
    <glyph glyph-name="one" unicode="1" 
d="M515 771l-40 -829l-404 41l-37 757zM370 99h-29q-14 0 -29 20q-9 11 -8 43l10 490h-22q-52 -41 -57 -45q-35 -23 -66 -29v-23h23q5 0 21 3q10 2 14 -2q11 -10 10 -31l-10 -360q-1 -35 -9 -45q-4 -4 -13 -3q-17 2 -21 2h-25v-23l211 -20v23z" />
    <glyph glyph-name="two" unicode="2" 
d="M505 -58l-30 829l-414 -41l-17 -757zM127 76v40q9 33 27 86q16 33 31 56q8 12 31 46q39 48 88 114q23 43 23 92q0 91 -85 91q-26 0 -44.5 -17t-20.5 -43q10 4 18 4q18 0 30 -12.5t12 -30.5q0 -19 -12.5 -32t-31.5 -13q-49 0 -49 65q0 48 37 79t86 31q66 0 105.5 -34
t39.5 -99q0 -56 -161 -217l-10 -10q-23 -23 -37 -43q-8 -21 -24 -58l113 -20q48 -9 62 58h21l-8 -143z" />
    <glyph glyph-name="three" unicode="3" 
d="M515 731l-40 -769l-404 -9l-37 797zM261 640q-46 0 -77 -25q-34 -27 -34 -71q0 -24 12 -40q13 -19 36 -19q17 0 28 12t11 29q0 43 -39 43q-9 0 -15 -2q12 46 61 46q71 0 71 -116q0 -64 -26 -115q-16 -31 -48 -31q-5 0 -14 1.5t-14 1.5q-15 0 -15 -14q0 -15 16 -15
q3 0 10 1.5t11 1.5q61 0 61 -122q0 -57 -14 -81q-8 -14 -28 -29t-35 -15q-28 0 -61 35h2q43 0 43 39t-40 39q-41 0 -41 -50q0 -27 40 -62q30 -26 75 -26q52 0 106 53q34 33 34 95q0 106 -115 134q63 9 95 44q17 19 29.5 52.5t12.5 59.5q0 67 -36 106.5t-102 39.5z" />
    <glyph glyph-name="four" unicode="4" 
d="M515 -28l-40 769l-404 9l-37 -797zM192 76v23q25 3 34.5 11t9.5 32v95l-129 -20v42l162 383h46v-362l53 10v-33l-53 -10v-108q0 -19 11 -30l11 -11q10 -8 20 -9v-23zM236 270v104q0 27 2 59q1 5 6 62l-91 -235z" />
    <glyph glyph-name="five" unicode="5" 
d="M515 771l-40 -829l-404 21l-37 777zM342 378q-40 52 -102 52q-42 0 -84 -30l-14 132q9 -3 24 4q19 7 25 7q50 0 74 5q47 10 54 42q1 20 3 39q-48 -15 -90 -15q8 0 -50 -2q-30 -1 -49 3h-32l25 -253q-13 -21 -13 -41q0 -16 15 -16q24 0 27 54q22 33 62 33q37 0 54 -34
q7 -14 21 -38q12 -27 12 -59q0 -70 -29 -131q-14 -29 -18 -33q-9 -11 -29 -11q-48 0 -58 48h4q48 0 48 45q0 20 -13 34.5t-33 14.5q-24 0 -38 -17.5t-14 -42.5q0 -52 37 -82.5t90 -30.5q30 0 50 18q9 8 38 45q36 46 36 152q0 38 -5 57q-7 23 -28 51z" />
    <glyph glyph-name="six" unicode="6" 
d="M515 -58l-40 829l-404 -21l-37 -777zM242 369q33 33 68 33q53 0 79 -56q20 -42 20 -102q0 -93 -25 -129q-35 -50 -98 -50q-62 0 -97 62q-21 37 -36 173q-7 64 -7 127q0 104 23 144q46 79 119 79q34 0 59 -20t25 -53q0 -21 -13 -35q-23 -24 -31 -24q-9 0 -32 22
q-13 13 -13 31q0 29 37 46q-10 11 -27 11q-39 0 -59 -49q-8 -19 -8 -68q0 -81 16 -142zM240 317l-2 -51q-1 -26 -1 -31q0 -41 21 -111q7 -24 35 -24q26 0 32 16q10 26 10 90q0 79 -18 134q-8 24 -29 24q-13 0 -26 -10q-5 -3 -22 -37z" />
    <glyph glyph-name="seven" unicode="7" 
d="M34 761l40 -819l404 31l37 767zM345 560l-113 20q-60 11 -79 -77h-23l17 147l244 -30v-30q-38 -82 -46 -101q-26 -61 -37 -103q-21 -80 -21 -196q0 -12 1 -35.5t1 -35.5q0 -67 -51 -67q-43 0 -43 61q0 27 30 123q11 38 39 135q32 111 81 189z" />
    <glyph glyph-name="eight" unicode="8" 
d="M515 -37l-481 -21l40 819l404 -31zM311 384q43 35 57.5 64t15.5 83q1 52 -28.5 86t-80.5 34q-58 0 -91 -44q-30 -40 -31 -100q-1 -59 16 -96q24 -52 49 -74q-30 -22 -65 -74q-22 -33 -23 -88q-1 -52 33 -85.5t86 -33.5q62 0 100 42t40 105q2 73 -17.5 110t-60.5 71z
M293 397q-49 31 -69 63.5t-18 87.5q2 80 67 80q68 0 65 -97q-2 -61 -12.5 -86.5t-32.5 -47.5zM258 80q-39 0 -60 33q-18 29 -17 70q2 56 15 85q20 43 40 55q56 -40 75 -68q24 -36 23 -97q-1 -33 -22.5 -55.5t-53.5 -22.5z" />
    <glyph glyph-name="nine" unicode="9" 
d="M34 741l40 -799l404 31l37 797zM309 347q-31 -34 -66 -34q-110 -1 -117 157q-3 67 22 117q31 62 93 63q38 0 57 -5q26 -8 43 -35q48 -79 53 -181q2 -41 2 -69q0 -151 -28 -204q-43 -81 -116 -82q-34 -1 -60 19t-27 53q-1 21 10.5 35.5t31.5 15.5q19 0 32.5 -12t14.5 -31
q1 -30 -35 -47q10 -10 27 -10q39 1 57 50q10 27 6 200zM299 389q0 53 -1 82q-2 56 -8 89q-12 66 -44 66q-42 -1 -37 -116q3 -80 23 -135q9 -25 30 -24q14 0 26 10q2 2 11 28z" />
    <glyph glyph-name="colon" unicode=":" horiz-adv-x="196" 
d="M150 112q0 -26 -18 -44t-44 -18t-44.5 18t-18.5 44t18.5 44t44.5 18q27 0 44.5 -17.5t17.5 -44.5zM96 127q-27 0 -27 -28q0 -27 27 -27q28 0 28 27q0 28 -28 28zM177 477q0 -29 -20 -50t-49 -21t-49.5 21t-20.5 50t20.5 48.5t49.5 19.5q30 0 49.5 -19t19.5 -49zM118 493
q-31 0 -31 -31t31 -31t31 31t-31 31z" />
    <glyph glyph-name="semicolon" unicode=";" horiz-adv-x="196" 
d="M177 477q0 -29 -20 -50t-49 -21t-49.5 21t-20.5 50t20.5 48.5t49.5 19.5q30 0 49.5 -19t19.5 -49zM118 493q-31 0 -31 -31t31 -31t31 31t-31 31zM60 133q5 -39 5 -73q0 -83 -33 -158l60 -44q43 55 62 122q14 51 20 136z" />
    <glyph glyph-name="less" unicode="&#x3c;" horiz-adv-x="720" 
d="M664 584l-466 -216l456 -236l-30 -79l-555 286v78l565 267z" />
    <glyph glyph-name="equal" unicode="=" horiz-adv-x="778" 
d="M679 278v-91l-585 10v71zM679 470v-92l-585 10v92z" />
    <glyph glyph-name="greater" unicode="&#x3e;" horiz-adv-x="720" 
d="M78 158l466 216l-456 236l30 79l555 -286v-78l-565 -267z" />
    <glyph glyph-name="question" unicode="?" horiz-adv-x="388" 
d="M117 108l-16 96q-15 90 -15 134q0 26 5 35q16 28 60 106q21 38 73 96q44 49 44 70q0 35 -25 73q-9 14 -31 29t-37 15q-9 0 -36.5 -6.5t-33.5 -10.5q-11 -6 -30 -40q65 -2 65 -56q0 -26 -17 -41.5t-43 -15.5q-61 0 -61 69q0 53 24 83q22 27 74 43q38 12 67 12
q63 0 129 -59q43 -39 43 -97q0 -52 -34 -102q-14 -20 -58 -53q-47 -34 -62 -53q-35 -45 -52 -72q-8 -13 -8 -52q0 -56 10 -118q3 -18 11 -65zM92 -22q0 29 20.5 49t49.5 20q30 0 49.5 -19.5t19.5 -49.5q0 -29 -20 -49.5t-49 -20.5t-49.5 20.5t-20.5 49.5z" />
    <glyph glyph-name="at" unicode="@" horiz-adv-x="764" 
d="M500 380l20 67l54 -18l-51 -213q0 -41 33 -41q40 0 61 33q10 15 25 65q5 16 5 95q0 27 -10 64q-11 43 -27 57q-88 77 -179 77q-72 0 -110 -16q-164 -69 -201 -166q-24 -63 -24 -131q0 -133 90 -212q86 -74 221 -74q68 0 127 20q42 14 111 63l24 -19q-118 -89 -262 -89
q-150 0 -246 72q-122 92 -122 253q0 165 133 274q108 89 254 89q149 0 220 -64q93 -84 93 -209q0 -86 -13 -117q-24 -58 -77 -104q-16 -14 -61 -33q-10 -4 -26 -3q-31 2 -26 2q-80 0 -85 81q-49 -80 -110 -80q-65 0 -99 56q-28 47 -26 115q3 96 46 137q55 53 122 53
q19 0 46.5 -9t40.5 -20q22 -19 29 -55zM438 330q-2 32 -25 62q-15 20 -39 20q-16 0 -37 -18q-35 -30 -56 -101q-7 -24 -2 -63q3 -22 25 -53q14 -20 37 -20q14 0 36 17q12 9 49 71q15 43 12 85z" />
    <glyph glyph-name="A" unicode="A" 
d="M448 82v22q-32 2 -43 56l-103 511h-47l-113 -474q-15 -64 -45 -66v-22h109v22q-39 3 -39 37q0 17 2 22l24 63l99 9l26 -107q3 -12 3 -27q0 -22 -30 -24v-22h157zM286 292l-86 -9l48 225zM465 -38l-384 21l-47 767l481 21z" />
    <glyph glyph-name="B" unicode="B" 
d="M84 -38l384 21l47 767l-481 11zM206 402h8q79 0 79 108q0 57 -7 78q-13 39 -57 39q-23 0 -23 -27v-198zM206 379l10 -229q2 -39 28 -39q60 0 60 127q0 67 -16 98q-22 43 -82 43zM124 77v34q32 5 30 37l-30 441q-1 20 -6 27.5t-24 10.5v34l146 -10q77 -5 113 -29
q48 -30 48 -101q0 -104 -129 -130q144 -25 144 -143q0 -83 -40 -120q-36 -35 -121 -41z" />
    <glyph glyph-name="C" unicode="C" 
d="M84 -48l384 21l47 747l-481 31zM356 221h26v-11q0 -48 -2 -61q-3 -20 -18 -40q-30 -41 -91 -41q-76 0 -124 80q-32 53 -32 193q0 109 53 202q43 76 113 76q29 0 56 -21h12l-7 51h43l22 -202h-37q-36 148 -84 148q-33 0 -46 -56q-33 -136 -33 -199q-1 -129 16 -178
q8 -22 25 -40q20 -21 41 -21q36 0 57 35q10 17 10 32v53z" />
    <glyph glyph-name="D" unicode="D" 
d="M84 -38l384 -19l47 777l-481 31zM120 77v34q33 5 31 37l-30 411q-2 34 -31 38v44l114 -10q127 -11 170 -46q19 -15 43 -83q7 -20 7 -60q0 -64 -14 -148q-18 -104 -45 -138q-46 -58 -151 -69zM222 171q0 -15 6 -32q6 -8 22 -8q28 0 32 2q23 8 32 115q2 62 4 125l7 128
q0 37 -4 49q-7 21 -31 34t-48 13q-31 0 -30 -41z" />
    <glyph glyph-name="E" unicode="E" 
d="M524 740l-489 30l26 -797l404 20zM117 90v33q30 4 31 36l9 429q1 34 -31 37v24l280 9l2 -134h-24q-6 29 -17 45l-22 26q-25 30 -68 30q-19 0 -23.5 -7.5t-5.5 -29.5l-9 -195q28 3 46 26q1 2 19 15q11 8 13 26h24l-9 -171h-24q-1 16 -22 47q-19 27 -47 31v-211
q0 -33 28 -33q39 0 67 36q13 16 25 31q13 20 21 51h23l-3 -142z" />
    <glyph glyph-name="F" unicode="F" 
d="M515 761l-50 -809l-384 21l-47 767zM394 640l-277 -20v-23q22 -2 28 -19q1 -4 2 -19l20 -421q1 -27 -35 -47v-23l140 10v23q-34 3 -34 37v214q55 -7 60 -75h23l20 165h-23q-3 -18 -15 -24q-16 -10 -19 -14q-18 -24 -46 -27v182q0 21 5 29.5t24 8.5q31 0 57 -21
q52 -42 68 -101h21z" />
    <glyph glyph-name="G" unicode="G" 
d="M40 761l49 -789l385 -19l41 773zM374 71l-18 47q-36 -30 -79 -30q-68 0 -108 70q-49 86 -49 191q0 139 37 201q47 79 126 79q22 0 48 -21l33 -10l12 71l34 -10l-19 -202h-27q-35 148 -84 148q-42 0 -54 -106q-5 -44 -5 -133v-14q0 -125 21 -200q11 -38 39 -38q24 0 35 23
q15 32 11 69l-10 89q-3 31 -19 29q-14 -2 -18 -1v34l151 10v-34q-25 -4 -29 -11q-7 -9 -6 -27l10 -224h-32z" />
    <glyph glyph-name="H" unicode="H" 
d="M40 751l49 -799l385 11l41 773zM315 382l-10 187q-1 20 -6 27q-3 3 -10 2q-11 -2 -14 -1v24l161 10v-24q-28 -4 -29 -38l-10 -471q-1 -33 29 -37v-24l-141 -10v24q8 1 24 20q6 7 6 27v253l-98 10l20 -203q2 -22 7 -27q2 -3 9 -1q8 2 14 1v-24l-152 -10v24q33 5 31 37
l-30 441q-1 21 -6.5 28t-24.5 10v24l152 10v-24q-7 -1 -23 -20q-8 -10 -7 -28l10 -207z" />
    <glyph glyph-name="I" unicode="I" 
d="M40 731l49 -769l385 -9l41 803zM316 138q1 -20 6.5 -28t23.5 -19v-24l-152 10v24q33 4 31 37l-20 421q-2 34 -31 38v24l152 10v-24q-8 -1 -24 -20q-7 -10 -6 -28z" />
    <glyph glyph-name="J" unicode="J" 
d="M515 761l-50 -789l-384 -9l-47 787zM393 658l-158 -10v-33q6 0 19 3q9 2 12 0q7 -7 9 -28l30 -378q3 -43 -13 -74q-7 -12 -31.5 -27t-38.5 -15q-32 0 -49 24l2 3q1 -1 2 -1q6 -2 10 -2q46 0 46 44q0 45 -46 45q-52 0 -52 -56q0 -45 20 -61q43 -35 85 -35q32 0 82 23
q36 17 52 65q14 40 11 85l-20 361q-2 34 28 34v33z" />
    <glyph glyph-name="K" unicode="K" 
d="M35 760l46 -777l384 -20l49 777zM210 128q0 -23 4 -32q6 -13 26 -15v-24l-131 10v24q31 3 30 37l-20 471q-1 34 -30 38v24l161 10v-24q-7 -1 -23 -20q-6 -7 -7 -28l-10 -244l120 200q6 10 6 23q0 17 -38 19v24l127 -10l-1 -24q-14 3 -36 1q-11 -6 -24 -30l-69 -122
l103 -258q4 -10 15 -35q3 -3 10 -2q10 1 14 0v-24l-154 -20v23q4 1 21 18q5 5 5 16q0 9 -4 24l-51 197l-44 -80v-167z" />
    <glyph glyph-name="L" unicode="L" 
d="M35 750l46 -767l384 -20l49 807zM135 98v24q32 4 31 37l-18 428q-1 34 -31 38v24l161 10l-1 -24q-9 -1 -30 -20q-8 -9 -8 -28l9 -432q1 -33 28 -33q41 0 67 42q5 9 33 79h22l-9 -154z" />
    <glyph glyph-name="M" unicode="M" 
d="M94 -37l405 19l26 769l-491 -21zM125 37v24q37 6 33 63l-30 440q-1 19 -7 24.5t-26 8.5v24l138 10l53 -170l58 210l133 -10v-34q-10 2 -25 0q-7 -10 -7 -32l-10 -451q-1 -40 32 -43v-24h-152v24q25 3 33 15t9 38l10 489l-72 -301h-33l-92 238l30 -456q3 -38 9 -47
q9 -13 32 -17v-23h-116z" />
    <glyph glyph-name="N" unicode="N" 
d="M415 623v23l-111 9v-23q26 -4 34 -21q5 -11 6 -42l9 -292l-128 333l-124 -9v-23q14 2 33 -1q9 -7 9 -26l-9 -377q-1 -30 -6 -42q-9 -19 -34 -22v-22l129 -9v22q-43 7 -41 64l9 334l170 -438h40l-27 508q-2 32 9 47q3 4 32 7zM465 -37l-404 19l-27 769l491 -21z" />
    <glyph glyph-name="O" unicode="O" 
d="M94 -37l405 19l26 769l-491 19zM273 595q-42 0 -54 -100q-4 -34 -4 -128q0 -27 -1 -88l-1 -74q1 -32 5 -49q13 -52 45 -52t45 52q23 91 23 211q0 94 -4 128q-12 100 -54 100zM443 379q0 -83 -29 -170q-33 -99 -96 -130q-22 -11 -45 -11q-95 0 -141 141q-9 28 -9 170
q0 70 19 129q29 89 56 120q36 41 85 41q48 0 85 -41q27 -30 56 -119q19 -58 19 -130z" />
    <glyph glyph-name="P" unicode="P" 
d="M94 -37l405 19l26 789l-491 -11zM223 396h9q36 0 54 25q28 39 28 94q0 40 -25 84q-16 28 -49 28q-29 0 -27 -34zM233 661q7 1 23 1q66 0 108 -42t42 -108q0 -68 -48 -106q-44 -35 -113 -35h-21l19 -233q3 -34 34 -37v-24h-130v24q39 6 35 37l-60 451q-2 12 -7 27
q-2 3 -9 2q-11 -2 -14 -1v24z" />
    <glyph glyph-name="Q" unicode="Q" 
d="M74 -27l405 -21l46 819l-491 -11zM222 227q22 34 54 34q29 0 49 -30q3 17 5 57q7 121 7 109q0 40 4 123q3 59 -2 77q-11 41 -46 41q-45 0 -55 -41q-23 -91 -23 -216q0 -103 7 -154zM311 131q-18 -9 -38 -9q-48 0 -85 41q-26 28 -49 114q-19 69 -25 125q-2 19 -2 34
q0 79 17 132q12 38 48 68q11 9 50 28q17 8 56 8q69 0 106 -61q14 -23 35 -89q13 -42 17 -146q2 -61 -17 -123q-8 -26 -63 -85q7 -33 20 -75q9 -13 19 -13q13 0 15 27v45h19q1 -11 1 -29q0 -91 -59 -91q-56 0 -65 99zM273 147q39 0 39 43q0 48 -40 48q-39 0 -39 -47
q0 -18 11.5 -31t28.5 -13z" />
    <glyph glyph-name="R" unicode="R" 
d="M453 257l-18 1q3 -18 0 -52q-3 -29 -7 -42q-7 -15 -17 -15q-14 0 -16 47q0 17 -3 61q-6 60 -28 92q-26 36 -81 49q129 23 129 118q0 67 -51 96q-37 21 -112 26l-132 9v-23q32 -4 31 -38l-9 -437q-1 -33 -35 -37v-23h159v23q-33 3 -34 37l-9 242q55 0 70 -38q9 -22 9 -90
v-9q0 -78 17 -108q22 -39 64 -39q75 0 75 126q0 14 -2 24zM308 499q0 -45 -27 -80q-18 -23 -62 -23h-8v169q0 31 29 31q31 0 45 -23q23 -38 23 -74zM465 -7l-404 -21l-27 789l491 29z" />
    <glyph glyph-name="S" unicode="S" 
d="M525 730l-60 -747l-404 -21l-17 819zM288 406q-37 38 -63 85q-32 57 -30 99q2 51 54 48q33 -2 56 -40q10 -13 23 -32q8 -14 12 -39l29 -2l9 150l-44 1q-2 -4 -2 -14v-17q-1 -7 -7 -7q-4 0 -31.5 12.5t-40.5 13.5q-53 3 -85 -40q-28 -37 -31 -92q-4 -76 26 -128
q15 -27 58 -72q8 -8 23 -24q38 -43 53 -64q29 -42 27 -77q-3 -59 -59 -56q-79 5 -109 157l-30 2l-9 -189l34 -1q3 14 10 30q7 4 16 4q4 0 37.5 -14.5t49.5 -15.5q52 -3 85 37q30 36 33 90q3 58 -25 108q-21 37 -69 87z" />
    <glyph glyph-name="T" unicode="T" 
d="M476 -68l-416 30l-16 819l481 -50zM409 620l-291 30l-14 -176h32q4 24 31 75q16 30 46 39l10 -448q1 -28 -7 -38q-3 -4 -16 -3q-20 2 -23 1v-32l173 -10v32q-23 2 -30 15q-5 9 -6 35l-10 438l24 -6q33 -15 53 -138h22z" />
    <glyph glyph-name="U" unicode="U" 
d="M514 730l-479 30l46 -787l384 10zM370 212l9 312q1 33 -9 47q-16 23 -32 25v24l112 -18v-24q-13 0 -31 -7q-8 -11 -9 -47l-9 -307q-2 -76 -30 -109q-31 -38 -104 -38q-70 0 -100 33t-30 104v379q0 28 -19 34q-5 -3 -15 -6v24l158 18v-24q-9 -1 -26 -18q-7 -9 -7 -28v-375
q0 -53 9 -74q15 -35 59 -35t61 36q12 23 13 74z" />
    <glyph glyph-name="V" unicode="V" 
d="M514 710l-479 30l46 -787l384 40zM233 67l-81 444q-4 22 -12 34q-7 7 -31 10v24l149 20v-24q-28 0 -28 -20q0 -7 2 -18l51 -284l75 310q4 17 4 21q0 27 -36 31v24l113 -20v-24q-29 -4 -41 -52l-118 -466z" />
    <glyph glyph-name="W" unicode="W" 
d="M517 760l-46 -807l-384 40l-49 737zM487 678l-122 10v-23q41 -2 41 -48q0 -4 -1.5 -11t-1.5 -10l-19 -357l-62 258q4 12 7 27q-1 5 -1 8q0 21 27 23v23h-128v-23q34 -4 36 -34l2 -39l-58 -219l-40 336q0 23 29 26v23l-114 -20v-23q25 -6 30 -46l59 -462h28l89 324
l62 -354h61l41 530q4 51 35 58v23z" />
    <glyph glyph-name="X" unicode="X" 
d="M517 730l-46 -777l-384 40l-49 767zM447 140q-5 1 -12.5 -2t-10.5 -3q-12 0 -31 49l-85 225l69 183q17 45 55 45h3v23l-117 10v-23q20 -3 27 -9.5t7 -25.5q0 -5 -6 -21l-53 -145l-44 117q-4 11 -4 19q0 14 22 15v23l-159 -20l1 -23q41 -2 51 -28l80 -213l-52 -191
q-17 -61 -70 -65v-22l122 -10v22q-2 1 -23 19q-8 7 -8 19q2 7 8 32l38 157l51 -133q6 -16 6 -24q0 -18 -26 -20v-22l161 20v22z" />
    <glyph glyph-name="Y" unicode="Y" 
d="M517 730l-46 -757l-384 -20l-39 797zM328 650v-23q36 0 36 -41q0 -10 -4 -23l-68 -218l-68 207q-4 12 -4 23q0 21 32 22l1 23l-166 -10v-23q10 3 27 1q6 -6 15 -29l98 -254l-10 -187q-2 -34 -36 -37v-23h163v23q-36 3 -36 37v181l80 259q17 55 50 59v23z" />
    <glyph glyph-name="Z" unicode="Z" 
d="M517 750l-46 -777l-384 -20l-39 767zM393 266q-14 -62 -63.5 -103t-112.5 -41q-12 0 -19 1l206 528v19l-259 -50l-15 -154h22q13 58 54 102q27 29 80 29q12 0 18 -1l-177 -509v-29l262 40l30 168h-26z" />
    <glyph glyph-name="bracketleft" unicode="[" horiz-adv-x="308" 
d="M75 -126l-10 914l234 10v-51l-148 -10l10 -802l138 10v-51z" />
    <glyph glyph-name="backslash" unicode="\" horiz-adv-x="328" 
d="M10 769l232 -882l63 20l-230 882z" />
    <glyph glyph-name="bracketright" unicode="]" horiz-adv-x="308" 
d="M232 788v-884l-224 -20v41l158 20l-20 792l-138 10v51z" />
    <glyph glyph-name="asciicircum" unicode="^" horiz-adv-x="616" 
d="M372 784l155 -196l-91 -20l-117 134l-137 -134l-81 20l166 196h105z" />
    <glyph glyph-name="underscore" unicode="_" horiz-adv-x="500" 
d="M500 -102v-84h-500v84h500z" />
    <glyph glyph-name="grave" unicode="`" horiz-adv-x="296" 
d="M77 693l89 -167l75 92l-112 121z" />
    <glyph glyph-name="a" unicode="a" 
d="M514 -37l-479 20l46 767l384 20zM448 94q-32 2 -43 56l-103 511h-47l-113 -474q-15 -64 -45 -66v-22h109v22q-39 3 -39 37q0 17 2 22l24 63l99 9l26 -107q3 -12 3 -27q0 -22 -30 -24v-22h157v22zM200 273l48 225l38 -216z" />
    <glyph glyph-name="b" unicode="b" 
d="M446 238q0 118 -144 143q129 26 129 130q0 71 -48 101q-36 24 -113 29l-146 10v-34q18 -3 23.5 -11t6.5 -27l30 -441q2 -32 -30 -37v-34l131 10q85 6 121 41q40 37 40 120zM323 500q0 -108 -79 -108h-8v198q0 27 23 27q44 0 57 -39q7 -21 7 -78zM334 228q0 -127 -60 -127
q-26 0 -28 39l-10 229q60 0 82 -43q16 -31 16 -98zM34 -38l49 799l386 -20l46 -769z" />
    <glyph glyph-name="c" unicode="c" 
d="M407 447l-22 202h-43l7 -51h-12q-27 21 -56 21q-70 0 -113 -76q-53 -93 -53 -202q0 -140 32 -193q48 -80 124 -80q61 0 91 41q15 20 18 40q2 13 2 61v11h-26v-53q0 -15 -10 -32q-21 -35 -57 -35q-21 0 -41 21q-17 18 -25 40q-17 49 -16 178q0 63 33 199q13 56 46 56
q48 0 84 -148h37zM34 -48l49 799l386 -20l46 -749z" />
    <glyph glyph-name="d" unicode="d" 
d="M429 340l5 82q0 44 -24 105q-9 23 -26 37q-44 37 -160 47l-114 10v-44q29 -4 31 -38l30 -411q2 -32 -31 -37v-34l94 10q105 11 151 69q34 42 44 204zM321 550q4 -11 4 -49q0 -21 -7 -128q0 -7 -5 -96l-4 -76q-7 -61 -27 -68q-4 -2 -32 -2q-19 0 -24 12q-3 8 -4 28
l-10 365q-1 41 30 41q34 0 45 -2q27 -5 34 -25zM34 -58l49 789l386 20l46 -779z" />
    <glyph glyph-name="e" unicode="e" 
d="M408 524l-2 134l-280 -9v-24q32 -3 31 -37l-9 -429q-1 -32 -31 -36v-33l283 9l3 142h-23q-8 -31 -21 -51q-12 -15 -25 -31q-28 -36 -67 -36q-28 0 -28 33v211q21 -3 36 -18l25 -32q7 -9 8 -28h24l9 171h-24q-2 -18 -13 -26q-18 -13 -19 -15q-18 -23 -46 -26l9 195
q1 22 5.5 29.5t23.5 7.5q43 0 71 -33q5 -7 19 -23q11 -16 17 -45h24zM34 2l27 769l404 -21l60 -767z" />
    <glyph glyph-name="f" unicode="f" 
d="M413 475l-19 165l-277 -20v-23q22 -2 28 -19q1 -4 2 -19l20 -421q1 -27 -35 -47v-23l140 10v23q-34 3 -34 37v214q55 -7 60 -75h23l20 165h-23q-3 -18 -15 -24q-16 -10 -19 -14q-18 -24 -46 -27v182q0 21 5 29.5t24 8.5q31 0 57 -21q52 -42 68 -101h21zM34 -18l46 759
l386 20l49 -809z" />
    <glyph glyph-name="g" unicode="g" 
d="M431 333v34l-151 -10v-34q12 2 29 -1q6 -6 8 -27l10 -89q4 -37 -11 -69q-11 -23 -35 -23q-28 0 -39 38q-21 75 -21 200v14q0 89 5 133q12 106 54 106q49 0 84 -148h27l19 202l-34 10l-12 -71l-33 10q-26 21 -48 21q-79 0 -126 -79q-37 -62 -37 -201q0 -105 49 -191
q40 -70 108 -70q43 0 79 30l18 -47h32l-10 224q-1 18 6 27q4 7 29 11zM39 -48l50 789l385 20l41 -774z" />
    <glyph glyph-name="h" unicode="h" 
d="M456 27v24q-29 4 -29 37v471q0 34 29 38v24l-161 -10v-24q10 2 24 -1q5 -7 6 -27l10 -187l-98 10l-10 207q-1 28 30 48v24l-152 -10v-24q29 -4 31 -38l20 -441q1 -33 -31 -37v-24l152 -10v24q-7 1 -23 20q-6 7 -7 27l-10 203l98 -10l10 -253q1 -27 -30 -47v-24zM49 -48
l30 799l405 -10l31 -774z" />
    <glyph glyph-name="i" unicode="i" 
d="M346 67v24q-7 1 -24 20q-5 7 -6 27l-20 421q-1 29 30 48v24l-152 -10v-24q29 -4 31 -38l20 -421q2 -33 -31 -37v-24zM39 -12l50 759l385 10l41 -805z" />
    <glyph glyph-name="j" unicode="j" 
d="M393 625v33l-158 -10v-33q6 0 19 3q9 2 12 0q7 -7 9 -28l30 -378q3 -43 -13 -74q-7 -12 -31.5 -27t-38.5 -15q-32 0 -49 24l2 3q1 -1 2 -1q6 -2 10 -2q46 0 46 44q0 45 -46 45q-52 0 -52 -56q0 -45 20 -61q43 -35 85 -35q32 0 82 23q36 17 52 65q14 40 11 85l-20 361
q-2 34 28 34zM34 -28l46 789l386 -10l49 -789z" />
    <glyph glyph-name="k" unicode="k" 
d="M437 117v24q-9 -2 -24 2q-2 2 -15 35l-103 258l69 122q20 35 39 31q15 -3 21 -2l1 24l-127 10v-24q38 -2 38 -19q0 -13 -6 -23l-120 -200l10 244q1 30 30 48v24l-151 -10v-24q29 -4 30 -38l10 -471q1 -34 -30 -37v-24l131 -10v24q-20 2 -26 15q-4 9 -4 32v167l44 80
l51 -197q4 -15 4 -24q0 -18 -26 -34v-23zM34 -38l37 778l394 21l50 -778z" />
    <glyph glyph-name="l" unicode="l" 
d="M398 233h-22q-15 -47 -43 -93q-17 -28 -57 -28q-27 0 -28 33l-9 432q-1 29 38 48l1 24l-161 -10v-24q30 -4 31 -38l18 -428q1 -33 -31 -37v-24l254 -9zM34 -37l47 767l384 21l50 -809z" />
    <glyph glyph-name="m" unicode="m" 
d="M477 627v34l-133 10l-58 -210l-53 170l-138 -10v-24q20 -3 26 -8.5t7 -24.5l30 -440q4 -57 -33 -63v-24h116v23q-23 4 -32 17q-6 9 -9 47l-30 456l92 -238h33l72 301l-10 -489q-1 -26 -9 -38t-33 -15v-24h152v24q-33 3 -32 43l10 451q0 22 7 32q2 3 9 1q11 -2 16 -1z
M34 -18l39 769l436 -20l16 -769z" />
    <glyph glyph-name="n" unicode="n" 
d="M524 3l-489 -30l26 797l404 -20zM415 656l-111 9v-23q26 -4 34 -21q5 -11 6 -42l9 -292l-128 333l-124 -9v-23q14 2 33 -1q9 -7 9 -26l-9 -377q-1 -30 -6 -42q-9 -19 -34 -22v-22l129 -9v22q-43 7 -41 64l9 334l170 -438h40l-27 508q-2 32 9 47q3 4 32 7v23z" />
    <glyph glyph-name="o" unicode="o" 
d="M443 379q0 72 -19 130q-29 89 -56 119q-37 41 -85 41q-49 0 -85 -41q-27 -31 -56 -120q-19 -59 -19 -129q0 -142 9 -170q32 -99 96 -130q23 -11 45 -11q57 0 101 59q24 34 40 82q29 89 29 170zM331 367q0 -120 -23 -211q-13 -52 -45 -52t-45 52q-4 17 -5 49q0 5 1 74
q1 61 1 88q0 94 4 128q12 100 54 100t54 -100q4 -34 4 -128zM34 -38l59 809l406 -20l26 -769z" />
    <glyph glyph-name="p" unicode="p" 
d="M446 492q0 66 -42 108t-108 42q-16 0 -23 -1l-141 -20v-24q9 2 23 -1q4 -4 7 -27l60 -451q4 -31 -35 -37v-24h130v24q-31 3 -34 37l-19 233h21q69 0 113 35q48 38 48 106zM354 495q0 -55 -28 -94q-18 -25 -54 -25h-9l-10 197q-2 34 27 34q33 0 49 -28q25 -44 25 -84z
M34 -28l59 799l406 -20l26 -789z" />
    <glyph glyph-name="q" unicode="q" 
d="M441 366q-4 103 -17 146q-10 33 -35 89q-37 61 -106 61q-34 0 -56 -8q-15 -5 -50 -28q-18 -15 -26 -25q-39 -48 -39 -175q0 -15 2 -34q8 -76 29 -139q5 -17 18 -54q33 -87 112 -87q20 0 38 9q9 -99 65 -99q59 0 59 91q0 18 -1 29h-19v-45q-2 -27 -15 -27q-10 0 -19 13
q-7 27 -20 75q54 57 63 85q19 62 17 123zM339 587q5 -18 2 -77q-4 -83 -4 -123q0 12 -7 -109q-2 -40 -5 -57q-20 30 -49 30q-32 0 -54 -34q-7 51 -7 154q0 125 23 216q10 41 55 41q35 0 46 -41zM312 180q0 -43 -39 -43q-17 0 -28.5 13t-11.5 31q0 47 39 47q40 0 40 -48z
M34 -38l39 789l406 20l46 -819z" />
    <glyph glyph-name="r" unicode="r" 
d="M524 3l-489 -30l26 797l404 -20zM435 258q3 -18 0 -52q-3 -29 -7 -42q-7 -15 -17 -15q-14 0 -16 47q0 17 -3 61q-6 60 -28 92q-26 36 -81 49q129 23 129 118q0 67 -51 96q-37 21 -112 26l-132 9v-23q32 -4 31 -38l-9 -437q-1 -33 -35 -37v-23h159v23q-33 3 -34 37l-9 242
q55 0 70 -38q9 -22 9 -90v-9q0 -78 17 -108q22 -39 64 -39q75 0 75 126q0 14 -2 24zM281 419q-18 -23 -62 -23h-8v169q0 31 29 31q31 0 45 -23q23 -38 23 -74q0 -45 -27 -80z" />
    <glyph glyph-name="s" unicode="s" 
d="M382 211q3 58 -25 108q-21 37 -69 87q-37 38 -63 85q-32 57 -30 99q2 51 54 48q33 -2 56 -40q10 -13 23 -32q8 -14 12 -39l29 -2l9 150l-44 1q-2 -4 -2 -14v-17q-1 -7 -7 -7q-3 0 -31 12.5t-41 13.5q-53 3 -85 -40q-28 -37 -31 -92q-4 -76 26 -128q15 -27 58 -72
q8 -8 23 -24q38 -43 53 -64q29 -42 27 -77q-3 -59 -59 -56q-79 5 -109 157l-30 2l-9 -189l34 -1q3 14 10 30q7 4 16 4q4 0 37.5 -14.5t49.5 -15.5q52 -3 85 37q30 36 33 90zM44 -38l16 819l406 -20l59 -749z" />
    <glyph glyph-name="t" unicode="t" 
d="M409 620l-291 30l-14 -176h32q4 24 31 75q16 30 46 39l10 -448q1 -28 -7 -38q-3 -4 -16 -3q-20 2 -23 1v-32l173 -10v32q-23 2 -30 15q-5 9 -6 35l-10 438l24 -6q33 -15 53 -138h22zM43 -69l17 821l416 30l50 -800z" />
    <glyph glyph-name="u" unicode="u" 
d="M450 568v24l-112 18v-24q16 -2 32 -25q10 -14 9 -47l-9 -312q-1 -51 -13 -74q-17 -36 -61 -36t-59 35q-9 21 -9 74v375q0 29 33 46v24l-158 -18v-24q5 4 15 6q19 -6 19 -34v-379q0 -71 30 -104t100 -33q73 0 104 38q28 33 30 109l9 307q1 36 9 47q2 4 31 7zM34 -48
l47 789l384 19l50 -777z" />
    <glyph glyph-name="v" unicode="v" 
d="M429 565v24l-113 20v-24q36 -4 36 -31q0 -4 -4 -21l-75 -310l-51 284q-2 11 -2 18q0 20 28 20v24l-149 -20v-24q24 -3 31 -10q8 -12 12 -34l81 -444l47 10l118 466q12 48 41 52zM34 -48l47 789l384 -41l50 -717z" />
    <glyph glyph-name="w" unicode="w" 
d="M467 655v23l-132 10v-23q41 -2 41 -48q0 -4 -1.5 -11t-1.5 -10l1 -377l-62 258q4 12 7 27q-1 5 -1 8q0 21 27 23v23l-128 -10v-23q9 3 24 1q11 -10 12 -25l2 -39l-58 -219l-27 311q-3 35 -3 25q0 23 29 26v23l-114 -20v-23q28 -7 30 -46l29 -462h28l109 324l72 -354h61
l11 550q0 20 14 42q7 11 31 16zM37 -7l30 737l434 41l17 -809z" />
    <glyph glyph-name="x" unicode="x" 
d="M447 108v22q-5 1 -12.5 -2t-10.5 -3q-12 0 -31 49l-85 225l69 183q17 45 55 45h3v23l-117 10v-23q20 -3 27 -9.5t7 -25.5q0 -5 -6 -21l-53 -145l-44 117q-4 11 -4 19q0 14 22 15v23l-159 -20l1 -23q41 -2 51 -28l80 -213l-52 -191q-17 -61 -70 -65v-22l122 -10v22
q-2 1 -23 19q-8 7 -8 19q2 7 8 32l38 157l51 -133q6 -16 6 -24q0 -18 -26 -20v-22zM37 -48l50 768l384 41l47 -778z" />
    <glyph glyph-name="y" unicode="y" 
d="M438 640l-110 10v-23q36 0 36 -41q0 -6 -4 -23l-58 -248l-58 207q-4 14 -4 23q0 21 32 22l1 23l-156 -10v-23q10 3 27 1q9 -9 15 -29l78 -254l-10 -177q-2 -34 -36 -37v-23h163v23q-36 3 -36 37v171l70 289q13 55 50 59v23zM47 -38l40 799l384 -21l47 -757z" />
    <glyph glyph-name="z" unicode="z" 
d="M419 266h-26q-14 -62 -63.5 -103t-112.5 -41q-12 0 -19 1l206 528v19l-259 -50l-15 -154h22q13 58 54 102q27 29 80 29q12 0 18 -1l-177 -509v-29l262 40zM47 -17l40 768l384 -21l47 -778z" />
    <glyph glyph-name="braceleft" unicode="{" horiz-adv-x="415" 
d="M355 762q-36 0 -48 -2q-18 -3 -28 -14q-33 -36 -33 -103v-157q0 -125 -17 -150q-30 -45 -82 -56q52 -11 82 -56q17 -25 17 -150v-67q0 -65 33 -102q23 -25 86 -26l20 -38h-5q-117 0 -169 46q-41 36 -41 133v98q0 73 -25 105q-28 35 -98 41l-10 33q77 7 105 38t28 108v188
q0 101 49 138q42 31 146 31z" />
    <glyph glyph-name="bar" unicode="|" horiz-adv-x="500" 
d="M294 794v-1030h-87v1030h87z" />
    <glyph glyph-name="braceright" unicode="}" horiz-adv-x="415" 
d="M61 762q36 0 48 -2q18 -3 28 -14q33 -36 33 -103v-157q0 -125 17 -150q30 -45 82 -56q-52 -11 -82 -56q-17 -25 -17 -150v-67q0 -65 -33 -102q-23 -25 -86 -26l-20 -38h5q117 0 169 46q41 36 41 133v98q0 73 26.5 106.5t96.5 39.5l10 33q-77 7 -105 38t-28 108v188
q0 101 -49 138q-42 31 -146 31z" />
    <glyph glyph-name="asciitilde" unicode="~" horiz-adv-x="833" 
d="M747 293q-100 -69 -186 -69q-40 0 -97 19l-33 11q-108 36 -156 36q-77 0 -188 -78l20 141q86 60 169 60q57 0 143 -29q19 0 91 -44q36 -22 52 -22q63 0 124 22q19 7 41 23z" />
    <glyph glyph-name="glyph98" 
 />
    <glyph glyph-name="glyph99" 
 />
    <glyph glyph-name="glyph98" 
 />
    <glyph glyph-name="glyph99" 
 />
  </font>
</defs>
</svg>
